<?xml version="1.0"?>
<svg width="278.419" height="278.419" xmlns="http://www.w3.org/2000/svg" xmlns:svg="http://www.w3.org/2000/svg">
 <g class="layer">
  <title>Layer 1</title>
  <g id="svg_1">
   <g id="svg_2">
    <path d="m234.916,29.102l-34.802,0l0,-8.701c0,-5.22 -3.48,-8.701 -8.701,-8.701s-8.701,3.48 -8.701,8.701l0,8.701l-87.005,0l0,-8.701c0,-5.22 -3.48,-8.701 -8.701,-8.701c-5.22,0 -8.701,3.48 -8.701,8.701l0,8.701l-34.802,0c-24.362,0 -43.503,19.141 -43.503,43.503l0,156.611c0,24.362 19.141,43.503 43.503,43.503l191.413,0c24.362,0 43.503,-19.141 43.503,-43.503l0,-156.611c0,-24.362 -19.141,-43.503 -43.503,-43.503zm-217.515,43.503c0,-13.921 12.181,-26.102 26.102,-26.102l34.802,0l0,8.701c0,5.22 3.48,8.701 8.701,8.701c5.22,0 8.701,-3.48 8.701,-8.701l0,-8.701l87.006,0l0,8.701c0,5.22 3.48,8.701 8.701,8.701s8.701,-3.48 8.701,-8.701l0,-8.701l34.802,0c13.921,0 26.102,12.181 26.102,26.102l0,26.102l-243.618,0l0,-26.102zm243.617,156.611c0,13.921 -12.181,26.102 -26.102,26.102l-191.413,0c-13.921,0 -26.102,-12.181 -26.102,-26.102l0,-113.108l243.617,0l0,113.108z" id="svg_3"/>
    <path d="m60.904,229.216c5.22,0 8.701,-1.74 12.181,-5.22c3.48,-3.48 5.22,-8.701 5.22,-12.181s-1.74,-8.701 -5.22,-12.181c-6.96,-6.96 -17.401,-6.96 -24.362,0c-3.48,3.48 -5.22,6.96 -5.22,12.181c0,3.48 1.74,8.701 5.22,12.181s6.961,5.22 12.181,5.22z" id="svg_4"/>
    <path d="m60.904,177.012c5.22,0 8.701,-1.74 12.181,-5.22s5.22,-8.701 5.22,-12.181s-1.74,-8.701 -5.22,-12.181c-6.96,-6.96 -17.401,-6.96 -24.362,0c-3.48,3.48 -5.22,6.96 -5.22,12.181c0,5.221 1.74,8.701 5.22,12.181s6.961,5.22 12.181,5.22z" id="svg_5"/>
    <path d="m113.108,229.216c5.22,0 8.701,-1.74 12.181,-5.22c3.48,-3.48 5.22,-8.701 5.22,-12.181s-1.74,-8.701 -5.22,-12.181c-6.96,-6.96 -17.401,-6.96 -24.362,0c-3.48,3.48 -5.22,8.701 -5.22,12.181s1.74,8.701 5.22,12.181c3.48,3.48 6.961,5.22 12.181,5.22z" id="svg_6"/>
    <path d="m113.108,177.012c5.22,0 8.701,-1.74 12.181,-5.22c3.48,-3.48 5.22,-8.701 5.22,-12.181s-1.74,-8.701 -5.22,-12.181c-6.96,-6.96 -17.401,-6.96 -24.362,0c-3.48,3.48 -5.22,8.701 -5.22,12.181s1.74,8.701 5.22,12.181c3.48,3.48 6.961,5.22 12.181,5.22z" id="svg_7"/>
    <path d="m165.311,229.216c5.22,0 8.701,-1.74 12.181,-5.22c3.48,-3.48 5.22,-6.96 5.22,-12.181c0,-5.221 -1.74,-8.701 -5.22,-12.181c-6.96,-6.96 -17.401,-6.96 -24.362,0c-3.48,3.48 -5.22,8.701 -5.22,12.181s1.74,8.701 5.22,12.181s6.961,5.22 12.181,5.22z" id="svg_8"/>
    <path d="m165.311,177.012c5.22,0 8.701,-1.74 12.181,-5.22s5.22,-6.96 5.22,-12.181c0,-3.48 -1.74,-8.701 -5.22,-12.181c-6.96,-6.96 -17.401,-6.96 -24.362,0c-3.48,3.48 -5.22,8.701 -5.22,12.181s1.74,8.701 5.22,12.181s6.961,5.22 12.181,5.22z" id="svg_9"/>
    <path d="m217.515,229.216c5.22,0 8.701,-1.74 12.181,-5.22c3.48,-3.48 5.22,-8.701 5.22,-12.181s-1.74,-8.701 -5.22,-12.181c-6.96,-6.96 -17.401,-6.96 -24.362,0c-3.48,3.48 -5.22,6.96 -5.22,12.181c0,3.48 1.74,8.701 5.22,12.181c3.48,3.48 6.961,5.22 12.181,5.22z" id="svg_10"/>
    <path d="m217.515,177.012c5.22,0 8.701,-1.74 12.181,-5.22s5.22,-6.96 5.22,-12.181c0,-3.48 -1.74,-8.701 -5.22,-12.181c-6.96,-6.96 -17.401,-6.96 -24.362,0c-3.48,3.48 -5.22,8.701 -5.22,12.181s1.74,8.701 5.22,12.181c3.48,3.48 6.961,5.22 12.181,5.22z" id="svg_11"/>
   </g>
  </g>
  <path d="m164.709473,141.880997c-0.287994,1.570663 -0.625092,2.2733 -1.333328,3c-0.629028,0.645432 -1.174484,0.999039 -1.984009,1.514664c-0.984772,0.627243 -1.709412,0.996368 -2.19249,1.295166c-1.148392,0.710327 -1.821198,1.210907 -2.204834,1.472839c-0.847809,0.578873 -1.318146,0.891296 -1.829346,1.205322c-1.725952,1.060242 -2.396255,1.40062 -3.084656,1.773666c-0.714233,0.387039 -1.454956,0.779449 -2.214005,1.185013c-0.775635,0.414429 -1.568085,0.830261 -3.157333,1.719986c-0.803101,0.449615 -1.602127,0.916916 -2.408997,1.3815c-0.811798,0.467422 -1.629608,0.936584 -2.462997,1.390503c-0.839294,0.457153 -1.683365,0.925064 -3.461334,1.727997c-0.901398,0.407074 -1.827927,0.768661 -2.758499,1.114502c-0.924164,0.34346 -1.84465,0.659363 -2.749512,0.961502c-0.880844,0.294113 -1.736984,0.562332 -3.325333,1.090668c-0.726898,0.241791 -1.407043,0.478928 -2.047493,0.705002c-0.606194,0.213989 -1.18119,0.421356 -1.732498,0.615005c-0.53038,0.18631 -1.042763,0.372574 -2.053337,0.679993c-0.49765,0.151382 -0.99543,0.283554 -1.486504,0.4095c-0.480949,0.123337 -0.951172,0.235626 -1.405495,0.346497c-0.852333,0.208008 -2.359283,0.413239 -2.962166,0.889832c-0.442703,0.349976 0.6875,0.520844 1.4795,0.520844c0.863998,0 1.693329,0 2.874664,0c0.755997,0 1.608002,0 2.0625,0c0.950996,0 2.437508,0.001968 2.938004,-0.000336c1.013031,-0.004669 1.532303,-0.005981 2.607498,-0.071671c0.564026,-0.034454 1.15419,-0.058304 3.056503,-0.37117c0.694077,-0.114151 1.408249,-0.270111 2.143494,-0.439499c0.755829,-0.174133 1.525314,-0.369797 2.305496,-0.583496c0.791885,-0.216904 2.387711,-0.696747 3.185837,-0.955002c0.796555,-0.257751 1.583221,-0.525406 2.358002,-0.793503c0.759872,-0.262939 1.498474,-0.524536 2.214005,-0.775497c0.687149,-0.241013 1.960815,-0.68013 3.091324,-1.043167c0.521637,-0.167511 1.518829,-0.480835 2.00267,-0.653336c0.99028,-0.353073 2.037292,-0.8078 2.598495,-1.077499c0.589645,-0.283371 1.803131,-0.91951 2.415344,-1.256668c0.610474,-0.336197 1.207794,-0.674667 1.783493,-1.012497c1.557175,-0.913788 1.999069,-1.191132 2.793335,-1.694656c0.704086,-0.446365 1.338882,-0.869019 2.244003,-1.472c0.900208,-0.599701 1.499985,-1.000015 2.099991,-1.400009c0.899826,-0.599854 1.787338,-1.192413 2.364014,-1.563995c0.548767,-0.353607 1.526978,-0.994934 2.389328,-1.389328c0.80658,-0.368881 1.645325,-0.445999 2.546661,-0.446671c0.936005,-0.000687 1.783997,0 2.647339,0c1.016663,0 2.227478,-0.358292 2.616669,0.425323c0.408066,0.821609 -0.548218,1.565857 -0.797333,2.408005c-0.248856,0.841248 -0.11351,1.804504 -0.169342,2.650665c-0.057312,0.868652 -0.514069,1.722183 -1.218658,2.069336c-0.924988,0.455734 -1.798889,0.308334 -2.757339,0.667999c-0.689926,0.258896 -1.547043,0.560837 -2.368668,0.888504c-0.830765,0.331314 -1.139175,1.152176 -1.854004,2.003494c-0.491653,0.585541 -1.442322,0.829498 -2.327164,0.886673l0.828506,0" fill="none" id="svg_21" stroke="#ffffff" stroke-dasharray="null" stroke-linecap="null" stroke-linejoin="null" stroke-width="10"/>
  <path d="m87.709473,190.880997c0.682663,-0.641759 1.540031,-1.021103 2.541664,-1.093472c0.566391,-0.04093 1.759865,0.018522 2.647667,-0.047081c0.856682,-0.063303 1.665329,-0.305833 2.362503,-0.768878c0.734077,-0.487548 1.77108,-1.282513 2.420166,-1.568819c0.70047,-0.308969 1.482819,-0.54153 2.316002,-0.763851c1.329849,-0.35484 1.798065,-0.45144 2.758667,-0.671528c0.49469,-0.11335 1.514671,-0.336948 2.040001,-0.446686c1.633659,-0.341259 2.198174,-0.443073 3.338661,-0.681957c0.575104,-0.120456 1.153419,-0.231522 2.290672,-0.530062c1.121635,-0.294434 2.204041,-0.666859 2.740334,-0.86696c0.541092,-0.20189 1.641518,-0.651779 2.210663,-0.893389c0.588203,-0.249704 1.832565,-0.788576 2.497665,-1.071695c0.692215,-0.294655 2.152893,-0.901312 2.918671,-1.204573c0.783539,-0.310281 1.584953,-0.619437 2.405998,-0.911264c1.672623,-0.594508 2.53093,-0.855372 3.393333,-1.116732c0.864609,-0.262024 1.73217,-0.511506 2.596504,-0.763834c0.859665,-0.250965 1.71315,-0.496937 2.551498,-0.763851c1.64035,-0.522275 2.428345,-0.819026 3.203995,-1.116732c0.77034,-0.295678 1.535446,-0.606265 2.307007,-0.911247c0.780441,-0.308492 1.574554,-0.623186 2.396988,-0.911264c1.721115,-0.602857 2.644531,-0.858815 3.593338,-1.11375c0.963547,-0.258888 1.93663,-0.495079 2.905502,-0.720297c0.952499,-0.221417 1.880371,-0.42421 2.770493,-0.619778c1.625381,-0.357107 2.341446,-0.517845 2.992004,-0.670046c0.59108,-0.138296 1.126633,-0.268175 1.612503,-0.385274c0.440796,-0.106227 0.840973,-0.20482 1.207504,-0.284755c0.645523,-0.140767 1.212601,-0.190047 1.917496,-0.32013c1.049896,-0.193744 1.85791,-0.73202 2.041672,-1.698374c0.200134,-1.052406 0.077988,-2.039702 0.373489,-3.039743l0.480667,-0.84554l0.165344,-0.893389l0.001328,-1.005052" fill="none" id="svg_22" stroke="#ffffff" stroke-dasharray="null" stroke-linecap="null" stroke-linejoin="null" stroke-width="10"/>
  <rect fill="none" height="1" id="svg_23" stroke="#ffffff" stroke-dasharray="null" stroke-linecap="null" stroke-linejoin="null" stroke-width="99" width="102" x="84.709473" y="182.880997"/>
  <rect fill="none" height="9" id="svg_24" stroke="#ffffff" stroke-dasharray="null" stroke-linecap="null" stroke-linejoin="null" stroke-width="10" width="7" x="95.709473" y="199.880994"/>
 </g>
</svg>